<?xml version="1.0" encoding="UTF-8"?>
<svg version="1.1" xmlns="http://www.w3.org/2000/svg" width="1024" height="1024">
<path d="M0 0 C337.92 0 675.84 0 1024 0 C1024 337.92 1024 675.84 1024 1024 C686.08 1024 348.16 1024 0 1024 C0 686.08 0 348.16 0 0 Z " fill="#FDFEFE" transform="translate(0,0)"/>
<path d="M0 0 C0.33 0 0.66 0 1 0 C1.11688445 24.99130885 1.20501337 49.98257664 1.25906086 74.97410393 C1.28482487 86.57853212 1.31994114 98.18279031 1.37719727 109.78710938 C1.42708718 119.90332566 1.45930411 130.01941881 1.47044247 140.1357547 C1.47695171 145.49062034 1.49221303 150.84513375 1.52865028 156.19988632 C1.56269787 161.24453638 1.57303521 166.28869055 1.56553841 171.3334446 C1.56690903 173.18048743 1.5767891 175.02754759 1.59602737 176.87449074 C1.70752309 188.13494584 1.39179724 196.72187993 -6.28125 205.65625 C-7.0134375 206.2646875 -7.745625 206.873125 -8.5 207.5 C-9.59828125 208.44359375 -9.59828125 208.44359375 -10.71875 209.40625 C-14.67367579 212.16928034 -18.16079197 213.25101466 -22.96711731 213.24050903 C-23.94161835 213.24325836 -24.91611938 213.24600769 -25.92015076 213.24884033 C-27.50618858 213.2380545 -27.50618858 213.2380545 -29.12426758 213.22705078 C-30.24665833 213.22734283 -31.36904907 213.22763489 -32.52545166 213.22793579 C-36.23189041 213.22654349 -39.93812765 213.2109867 -43.64453125 213.1953125 C-46.21571238 213.19158202 -48.78689494 213.18873521 -51.358078 213.18673706 C-57.43178799 213.17988343 -63.50541492 213.16412368 -69.57909364 213.14403808 C-76.4956337 213.12166294 -83.41217727 213.1106816 -90.32874453 213.10064721 C-104.55254148 213.07975694 -118.77625339 213.0430872 -133 213 C-133 223.23 -133 233.46 -133 244 C-128.12347656 243.91298828 -128.12347656 243.91298828 -123.1484375 243.82421875 C-119.99107298 243.78519724 -116.83373557 243.75485303 -113.67626953 243.7253418 C-111.48604256 243.70023566 -109.29589906 243.66614363 -107.10595703 243.62280273 C-103.95324078 243.56198093 -100.80163447 243.53375077 -97.6484375 243.51171875 C-96.1855983 243.47300911 -96.1855983 243.47300911 -94.69320679 243.43351746 C-90.26702382 243.43170152 -87.02307309 243.47203575 -83.45947266 246.28051758 C-78.14713828 252.15445966 -79 254.29282123 -79 263 C-140.71 263 -202.42 263 -266 263 C-266 251.55404256 -266 251.55404256 -262 247 C-256.2505003 242.8619582 -251.8778717 242.45032751 -244.91015625 242.609375 C-243.4933683 242.61786469 -243.4933683 242.61786469 -242.04795837 242.62652588 C-239.05227444 242.64878929 -236.05781805 242.69896669 -233.0625 242.75 C-231.02280382 242.77007798 -228.98308876 242.78832647 -226.94335938 242.8046875 C-221.9613944 242.84520775 -216.98205953 242.92351636 -212 243 C-212 233.1 -212 223.2 -212 213 C-215.40626709 213.02618408 -218.81253418 213.05236816 -222.32202148 213.0793457 C-233.5895824 213.16227867 -244.85716733 213.21771247 -256.12495327 213.25906086 C-262.95512436 213.28479353 -269.78500538 213.31984842 -276.61499023 213.37719727 C-283.20910536 213.43253899 -289.80299887 213.46144157 -296.39735603 213.47438622 C-298.91031696 213.48360848 -301.42326184 213.50161748 -303.93609428 213.52865028 C-307.4622312 213.56506766 -310.98713232 213.56993976 -314.51342773 213.56762695 C-316.0638678 213.59459152 -316.0638678 213.59459152 -317.64562988 213.62210083 C-325.68322248 213.56524021 -331.2307686 211.25814917 -337.3046875 206.0078125 C-337.82289063 205.38648438 -338.34109375 204.76515625 -338.875 204.125 C-339.40867187 203.50882813 -339.94234375 202.89265625 -340.4921875 202.2578125 C-344.51622838 196.23217616 -345.4348716 191.30870752 -345.29296875 184.22265625 C-345.28872391 183.41130722 -345.28447906 182.59995819 -345.28010559 181.76402283 C-345.26343867 179.19649744 -345.22581048 176.62978436 -345.1875 174.0625 C-345.1724376 172.31186037 -345.15875193 170.56120832 -345.14648438 168.81054688 C-345.11357468 164.54005608 -345.06187726 160.27016531 -345 156 C-344.36368652 156.12987305 -343.72737305 156.25974609 -343.07177734 156.39355469 C-339.08751398 157.19979612 -335.11340691 157.98136399 -331.1015625 158.640625 C-321.84487506 160.26314549 -321.84487506 160.26314549 -319.2890625 162.4921875 C-318.25 164.125 -318.25 164.125 -317 167 C-314.57530357 168.21234822 -313.04251102 168.12749648 -310.33253765 168.13142776 C-309.3423547 168.13526891 -308.35217176 168.13911005 -307.33198327 168.1430676 C-306.23619023 168.14220112 -305.1403972 168.14133463 -304.01139832 168.14044189 C-302.85348842 168.14341302 -301.69557853 168.14638414 -300.50258046 168.1494453 C-297.27869675 168.15664058 -294.05484544 168.15930578 -290.83095491 168.16004276 C-287.35778158 168.16189048 -283.88461988 168.1694364 -280.41145325 168.17617798 C-272.81230636 168.18977359 -265.21316474 168.19578796 -257.61400771 168.20018864 C-252.87108673 168.20294906 -248.12816779 168.20718605 -243.38524818 168.21169281 C-230.25943091 168.22388722 -217.13361529 168.2341861 -204.00779247 168.2375679 C-203.16731893 168.23778747 -202.32684539 168.23800703 -201.46090295 168.23823325 C-200.61839122 168.23845153 -199.77587948 168.23866981 -198.90783709 168.2388947 C-197.20052095 168.23933817 -195.49320481 168.23978473 -193.78588867 168.24023438 C-192.93899663 168.2404558 -192.09210459 168.24067723 -191.21954916 168.24090537 C-177.49459394 168.244854 -163.7696918 168.2623092 -150.04475709 168.2855939 C-135.96132296 168.30929438 -121.87791547 168.32176916 -107.79446107 168.32293582 C-99.88399861 168.32385333 -91.97360529 168.3296247 -84.06316185 168.34775543 C-77.3275024 168.36313888 -70.59193345 168.36828732 -63.85625979 168.36001733 C-60.41868093 168.35610451 -56.98128442 168.35707091 -53.54372787 168.37107468 C-49.81884412 168.3837045 -46.09443246 168.37796588 -42.36955261 168.36749268 C-41.28045174 168.37554908 -40.19135087 168.38360548 -39.06924695 168.39190602 C-31.98233257 168.45934298 -31.98233257 168.45934298 -26 165 C-23.79296124 161.87748134 -23.76724658 159.20969198 -23.81573486 155.45010376 C-23.82480362 154.32051239 -23.83387238 153.19092102 -23.84321594 152.02709961 C-23.86305038 150.7917749 -23.88288483 149.5564502 -23.90332031 148.28369141 C-23.92242162 146.28093784 -23.94149914 144.27818391 -23.95968866 142.27542186 C-23.98050121 140.12302014 -24.00566941 137.97069775 -24.03125763 135.81834793 C-24.08193655 131.31955691 -24.10452235 126.82090323 -24.12005615 122.3218689 C-24.12277346 121.56124197 -24.12549077 120.80061504 -24.12829041 120.01693881 C-24.13372377 118.46137144 -24.13905892 116.90580373 -24.14429808 115.3502357 C-24.17996317 104.88009546 -24.23044414 94.41118545 -24.37353516 83.94189453 C-24.46991442 76.87529811 -24.51588472 69.81031006 -24.50493121 62.74303949 C-24.50108004 59.00862648 -24.52183714 55.27819179 -24.60428619 51.54460526 C-25.14738459 25.84631056 -25.14738459 25.84631056 -18.1205101 18.18117332 C-15.76017747 16.01875594 -13.30116777 14.11496589 -10.67804718 12.28365707 C-8.02560646 10.2546174 -6.20764048 7.83829045 -4.1875 5.1875 C-3.58292969 4.39730469 -2.97835938 3.60710937 -2.35546875 2.79296875 C-1.90816406 2.20128906 -1.46085937 1.60960937 -1 1 C-0.67 0.67 -0.34 0.34 0 0 Z " fill="#313C8F" transform="translate(709,480)"/>
<path d="M0 0 C0.33 0 0.66 0 1 0 C1 63.69 1 127.38 1 193 C0.67 193 0.34 193 0 193 C-0.33 183.43 -0.66 173.86 -1 164 C-2.65 166.64 -4.3 169.28 -6 172 C-11.58326515 180.20999115 -18.8526824 187.98024764 -29 190 C-30.653039 190.09125761 -32.30930169 190.13081158 -33.96485424 190.13422108 C-34.97048607 190.13867892 -35.9761179 190.14313676 -37.01222342 190.14772969 C-38.66642742 190.14745315 -38.66642742 190.14745315 -40.35404968 190.14717102 C-41.52718037 190.15084771 -42.70031106 190.1545244 -43.90899116 190.1583125 C-47.16623782 190.16743077 -50.42345487 190.17204715 -53.6807121 190.17470181 C-57.19346547 190.17860876 -60.70620429 190.18818678 -64.21894836 190.19691467 C-72.70237705 190.21666736 -81.18580691 190.22674348 -89.66925284 190.23564246 C-93.66532943 190.24002706 -97.6614047 190.2453934 -101.65748024 190.25063133 C-114.94292647 190.26764192 -128.22837188 190.28213605 -141.51382732 190.28938007 C-144.96063424 190.29128993 -148.40744115 190.29321027 -151.85424805 190.29516602 C-152.7109223 190.29564976 -153.56759656 190.2961335 -154.45023064 190.2966319 C-168.32756983 190.3049321 -182.20482282 190.33026959 -196.08212437 190.36274669 C-210.33288259 190.39582566 -224.583597 190.41382956 -238.8343938 190.41702431 C-246.83440517 190.41918857 -254.83429082 190.42792482 -262.83426476 190.45348549 C-269.64736512 190.47520389 -276.46030921 190.48323731 -283.27344026 190.47351871 C-286.74803743 190.46897734 -290.22231223 190.4708502 -293.69686508 190.49028015 C-297.4685262 190.50794924 -301.23937064 190.50091609 -305.0110321 190.48774719 C-306.10268116 190.49871644 -307.19433022 190.50968568 -308.31905955 190.52098733 C-317.45269633 190.44404906 -324.60598115 188.00584727 -331.375 181.75390625 C-337.8570607 174.75764362 -343.17097629 165.69133844 -343 156 C-339.40793185 156.66802066 -335.82917475 157.39126918 -332.25 158.125 C-330.72632813 158.40730469 -330.72632813 158.40730469 -329.171875 158.6953125 C-321.76684388 160.25426642 -321.76684388 160.25426642 -319.47460938 162.48339844 C-318.421875 164.1171875 -318.421875 164.1171875 -317 167 C-314.57530357 168.21234822 -313.04251102 168.12749648 -310.33253765 168.13142776 C-309.3423547 168.13526891 -308.35217176 168.13911005 -307.33198327 168.1430676 C-306.23619023 168.14220112 -305.1403972 168.14133463 -304.01139832 168.14044189 C-302.85348842 168.14341302 -301.69557853 168.14638414 -300.50258046 168.1494453 C-297.27869675 168.15664058 -294.05484544 168.15930578 -290.83095491 168.16004276 C-287.35778158 168.16189048 -283.88461988 168.1694364 -280.41145325 168.17617798 C-272.81230636 168.18977359 -265.21316474 168.19578796 -257.61400771 168.20018864 C-252.87108673 168.20294906 -248.12816779 168.20718605 -243.38524818 168.21169281 C-230.25943091 168.22388722 -217.13361529 168.2341861 -204.00779247 168.2375679 C-203.16731893 168.23778747 -202.32684539 168.23800703 -201.46090295 168.23823325 C-200.61839122 168.23845153 -199.77587948 168.23866981 -198.90783709 168.2388947 C-197.20052095 168.23933817 -195.49320481 168.23978473 -193.78588867 168.24023438 C-192.93899663 168.2404558 -192.09210459 168.24067723 -191.21954916 168.24090537 C-177.49459394 168.244854 -163.7696918 168.2623092 -150.04475709 168.2855939 C-135.96132296 168.30929438 -121.87791547 168.32176916 -107.79446107 168.32293582 C-99.88399861 168.32385333 -91.97360529 168.3296247 -84.06316185 168.34775543 C-77.3275024 168.36313888 -70.59193345 168.36828732 -63.85625979 168.36001733 C-60.41868093 168.35610451 -56.98128442 168.35707091 -53.54372787 168.37107468 C-49.81884412 168.3837045 -46.09443246 168.37796588 -42.36955261 168.36749268 C-41.28045174 168.37554908 -40.19135087 168.38360548 -39.06924695 168.39190602 C-31.98233257 168.45934298 -31.98233257 168.45934298 -26 165 C-23.79296124 161.87748134 -23.76724658 159.20969198 -23.81573486 155.45010376 C-23.82480362 154.32051239 -23.83387238 153.19092102 -23.84321594 152.02709961 C-23.86305038 150.7917749 -23.88288483 149.5564502 -23.90332031 148.28369141 C-23.92242162 146.28093784 -23.94149914 144.27818391 -23.95968866 142.27542186 C-23.98050121 140.12302014 -24.00566941 137.97069775 -24.03125763 135.81834793 C-24.08193655 131.31955691 -24.10452235 126.82090323 -24.12005615 122.3218689 C-24.12277346 121.56124197 -24.12549077 120.80061504 -24.12829041 120.01693881 C-24.13372377 118.46137144 -24.13905892 116.90580373 -24.14429808 115.3502357 C-24.17996317 104.88009546 -24.23044414 94.41118545 -24.37353516 83.94189453 C-24.46991442 76.87529811 -24.51588472 69.81031006 -24.50493121 62.74303949 C-24.50108004 59.00862648 -24.52183714 55.27819179 -24.60428619 51.54460526 C-25.14738459 25.84631056 -25.14738459 25.84631056 -18.1205101 18.18117332 C-15.76017747 16.01875594 -13.30116777 14.11496589 -10.67804718 12.28365707 C-8.02560646 10.2546174 -6.20764048 7.83829045 -4.1875 5.1875 C-3.58292969 4.39730469 -2.97835938 3.60710937 -2.35546875 2.79296875 C-1.90816406 2.20128906 -1.46085937 1.60960937 -1 1 C-0.67 0.67 -0.34 0.34 0 0 Z " fill="#4258C5" transform="translate(709,480)"/>
<path d="M0 0 C0.66 0.33 1.32 0.66 2 1 C1.23816406 1.67804688 0.47632813 2.35609375 -0.30859375 3.0546875 C-19.65991324 20.41956114 -35.03292713 41.60023919 -37.28564453 68.39794922 C-37.39920791 71.81222494 -37.41009423 75.20916116 -37.375 78.625 C-37.38660156 79.76195312 -37.39820313 80.89890625 -37.41015625 82.0703125 C-37.3740181 92.57446687 -35.15615712 101.66650085 -30.375 111 C-30.03090088 111.67861084 -29.68680176 112.35722168 -29.33227539 113.05639648 C-26.00080676 119.38910725 -21.84390367 124.7375973 -17 130 C-16.2265625 130.91072266 -16.2265625 130.91072266 -15.4375 131.83984375 C5.39069183 154.89187898 42.64008458 166.00037833 72.74560547 167.85058594 C108.40705991 169.48785601 141.66603736 165.84352499 176 156 C176.81952148 155.77199707 177.63904297 155.54399414 178.48339844 155.30908203 C221.49468476 143.31266892 264.97520551 121.80519897 300 94 C301.83564555 92.55177713 303.67240413 91.10498076 305.50976562 89.65893555 C306.7117257 88.71074008 307.91115172 87.75931908 309.10742188 86.80395508 C312.62936652 84.00611482 316.22476093 81.44649178 320 79 C318.63576185 82.02581026 317.07614858 84.21243161 314.796875 86.6171875 C314.15347168 87.29958496 313.51006836 87.98198242 312.84716797 88.68505859 C311.80906982 89.76907959 311.80906982 89.76907959 310.75 90.875 C310.03344238 91.6273291 309.31688477 92.3796582 308.57861328 93.15478516 C306.39208066 95.44270259 304.19682053 97.72196429 302 100 C301.06075684 100.98226562 301.06075684 100.98226562 300.10253906 101.984375 C292.4602465 109.95748461 284.53389501 117.09081484 275.69824219 123.71630859 C274.03431771 124.97405944 272.39352904 126.25662619 270.7578125 127.55078125 C252.93671809 141.60888827 233.4350833 153.2287153 212.98583984 163.04394531 C210.94903571 164.02453604 208.92185428 165.02341269 206.89453125 166.0234375 C197.21704968 170.74482076 187.36755778 174.67669677 177.20458984 178.22705078 C175.20983429 178.92643019 173.22367722 179.64569136 171.23828125 180.37109375 C152.07723972 187.13753416 132.04846487 190.15889352 112 193 C110.92403564 193.176521 109.84807129 193.35304199 108.73950195 193.53491211 C104.33041181 194.08327776 100.00884928 194.19862248 95.5703125 194.23828125 C94.22092842 194.25283607 94.22092842 194.25283607 92.84428406 194.26768494 C89.93781048 194.29258564 87.03156958 194.30521005 84.125 194.3125 C82.64052872 194.31642761 82.64052872 194.31642761 81.12606812 194.32043457 C65.69235739 194.32481581 51.0993571 193.41567981 36 190 C34.3360843 189.64904287 32.6720256 189.29876291 31.0078125 188.94921875 C24.11758241 187.44579208 17.5470907 185.60855406 11 183 C9.83271362 182.53533325 9.83271362 182.53533325 8.6418457 182.0612793 C-16.58650753 171.86058298 -43.16716227 157.28350736 -54.84863281 131.09765625 C-64.03471918 109.01714415 -65.36825948 85.01979901 -56.26953125 62.56640625 C-50.80945616 49.96676991 -43.3637113 39.17994561 -33.98828125 29.140625 C-32.38140784 27.41063162 -30.89554875 25.66553854 -29.4375 23.8125 C-21.29325332 14.4152923 -10.31183409 6.87455606 0 0 Z " fill="#3B3EAE" transform="translate(354,441)"/>
<path d="M0 0 C8.55697732 1.95490063 16.1599015 5.08474885 24 9 C24.93972656 9.4640625 25.87945313 9.928125 26.84765625 10.40625 C34.15141905 14.18949404 40.56060064 18.90407245 47 24 C47.65871094 24.50273437 48.31742188 25.00546875 48.99609375 25.5234375 C59.83492117 34.18448666 67.34369782 46.19567489 72.25 59 C72.49645264 59.64026123 72.74290527 60.28052246 72.99682617 60.94018555 C82.25462603 86.30073304 76.74457497 115.5158317 65.86474609 139.50292969 C61.22115197 149.38833841 56.24479775 159.02142813 50 168 C49.27554687 169.06992187 48.55109375 170.13984375 47.8046875 171.2421875 C41.92964919 179.79054278 35.37660015 187.61977246 28.47070312 195.35009766 C27.21466393 196.75918014 25.97299778 198.18105255 24.734375 199.60546875 C20.00165772 204.99751497 14.99660389 210.10399809 9.9375 215.1875 C9.27645264 215.85322021 8.61540527 216.51894043 7.93432617 217.20483398 C-32.10975349 257.11985128 -86.64040359 284.88760758 -141 299 C-141.85561523 299.22284668 -142.71123047 299.44569336 -143.59277344 299.67529297 C-166.23994874 305.49311207 -188.58264785 309.18745782 -211.96533203 309.18530273 C-214.59814918 309.18747782 -217.23053849 309.20565284 -219.86328125 309.22460938 C-234.5408781 309.27323238 -248.5428785 307.57380572 -263 305 C-263 304.67 -263 304.34 -263 304 C-262.06019287 304.01571045 -261.12038574 304.0314209 -260.15209961 304.04760742 C-222.97479547 304.61245514 -187.65680267 299.6923592 -152.26538086 287.7565918 C-150.08698023 287.02904965 -147.90151968 286.33049903 -145.7109375 285.640625 C-136.56924149 282.731239 -127.83373277 279.39056585 -119.23535156 275.11035156 C-116.63026594 273.81634442 -114.01412902 272.54586517 -111.3984375 271.2734375 C-78.73348969 255.27599544 -48.82869572 235.92840859 -22.23828125 210.9921875 C-19.89607975 208.8012372 -17.49516478 206.69535563 -15.0625 204.60546875 C-11.03159815 201.09314841 -7.32938371 197.34834519 -3.6875 193.4375 C-2.71647339 192.39650146 -2.71647339 192.39650146 -1.72583008 191.33447266 C4.25512839 184.8472796 9.72909939 178.06982894 15 171 C15.42087891 170.44666992 15.84175781 169.89333984 16.27539062 169.32324219 C29.68614029 151.65854505 40.44474218 131.2028684 47 110 C47.39445312 108.74960937 47.78890625 107.49921875 48.1953125 106.2109375 C51.0097789 96.25482254 51.39667399 86.34261053 51.4375 76.0625 C51.4475708 74.74709229 51.4576416 73.43168457 51.46801758 72.07641602 C51.36908651 61.00104797 49.33910994 51.6981657 44.25 41.875 C43.90219482 41.19268311 43.55438965 40.51036621 43.19604492 39.80737305 C39.22765112 32.22659624 34.27621006 25.82790935 28 20 C27.10087891 19.11054688 27.10087891 19.11054688 26.18359375 18.203125 C20.70057875 12.99274611 14.82937053 9.35246211 8.234375 5.76171875 C5.43956124 4.23942285 2.67942316 2.71744981 0 1 C0 0.67 0 0.34 0 0 Z " fill="#4475D6" transform="translate(663,289)"/>
<path d="M0 0 C0 60.72 0 121.44 0 184 C-6.25719845 186.50287938 -11.5252687 188.56875619 -17.90625 190.140625 C-18.59763062 190.31253357 -19.28901123 190.48444214 -20.00134277 190.66156006 C-21.43887356 191.01762438 -22.87723688 191.37034412 -24.31640625 191.71972656 C-26.52535596 192.25615755 -28.73153606 192.80299461 -30.9375 193.3515625 C-41.67101085 196 -41.67101085 196 -44 196 C-44.28055875 174.77288266 -44.4920461 153.54607178 -44.62174606 132.31747532 C-44.68357457 122.46012386 -44.767835 112.60392559 -44.90527344 102.74731445 C-45.02503568 94.15426874 -45.10233388 85.5620582 -45.12906194 76.9682011 C-45.14468281 72.41898265 -45.18127355 67.87215296 -45.26876068 63.32370186 C-45.35053135 59.03751868 -45.37528198 54.75469498 -45.35729218 50.46780586 C-45.36058017 48.89915666 -45.3842796 47.33038941 -45.4304657 45.76241684 C-45.76116862 33.9509962 -45.76116862 33.9509962 -41.41928864 29.14112663 C-38.37525705 26.83286485 -35.31037367 24.89986639 -32 23 C-30.25659291 21.76993941 -28.52475866 20.52306231 -26.8125 19.25 C-25.93207031 18.61320312 -25.05164063 17.97640625 -24.14453125 17.3203125 C-19.29621241 13.74279525 -14.52287471 10.06798844 -9.74926758 6.39160156 C-9.04825928 5.85245117 -8.34725098 5.31330078 -7.625 4.7578125 C-6.99851562 4.2745752 -6.37203125 3.79133789 -5.7265625 3.29345703 C-1.33031333 0 -1.33031333 0 0 0 Z " fill="#477FD9" transform="translate(512,381)"/>
<path d="M0 0 C5.37974684 2.15189873 5.37974684 2.15189873 8 5 C10.8521958 7.37682984 13.5481097 8.67234988 17 10 C17.99 10.66 18.98 11.32 20 12 C20 12.66 20 13.32 20 14 C20.5775 14.268125 21.155 14.53625 21.75 14.8125 C24 16 24 16 26 17.5625 C28.04443806 19.03193986 29.54522028 19.56164648 32 20 C32 20.66 32 21.32 32 22 C32.721875 22.268125 33.44375 22.53625 34.1875 22.8125 C37.08595875 24.0362937 39.48256888 25.10120078 42 27 C42.64037895 29.58008099 42.64037895 29.58008099 42.66183472 32.73576355 C42.68171448 33.93155029 42.70159424 35.12733704 42.72207642 36.35935974 C42.71823944 37.67316116 42.71440247 38.98696259 42.71044922 40.34057617 C42.72377208 41.73690832 42.73916305 43.13322205 42.75646973 44.5295105 C42.79641032 48.32533693 42.80397097 52.12057656 42.80335379 55.9165895 C42.80513332 59.08732191 42.82105224 62.25792489 42.83647549 65.42861539 C42.87201968 72.91350828 42.87975703 80.3980948 42.87158203 87.88305664 C42.86375012 95.59581115 42.90763502 103.30707252 42.97638309 111.01949137 C43.033315 117.64560475 43.05531407 124.27123576 43.05014813 130.89759046 C43.04757451 134.85316244 43.05864734 138.80750437 43.10439682 142.76283836 C43.14616718 146.48757572 43.14421312 150.2098278 43.10943604 153.93461227 C43.10134897 155.94417774 43.1375607 157.95377054 43.17532349 159.96299744 C43.03475309 168.64123304 43.03475309 168.64123304 40.08498001 172.51467323 C37.81665656 174.56380891 35.53173997 176.29184629 33 178 C31.45818836 179.18223526 29.91987034 180.36905559 28.38671875 181.5625 C26.8243453 182.71382609 25.25786154 183.8595934 23.6875 185 C22.86515869 185.60086426 22.04281738 186.20172852 21.19555664 186.82080078 C3.06749886 200 3.06749886 200 0 200 C0 134 0 68 0 0 Z " fill="#6945B3" transform="translate(584,329)"/>
<path d="M0 0 C0 46.53 0 93.06 0 141 C-20.72520555 152.51400308 -20.72520555 152.51400308 -28.0625 155.875 C-28.81208984 156.225625 -29.56167969 156.57625 -30.33398438 156.9375 C-31.81371225 157.62693318 -33.29620843 158.31046368 -34.78173828 158.98730469 C-36.33230058 159.69517751 -37.87715247 160.41563314 -39.41748047 161.14550781 C-40.60108154 161.69609863 -40.60108154 161.69609863 -41.80859375 162.2578125 C-42.51685303 162.59184082 -43.2251123 162.92586914 -43.95483398 163.27001953 C-46 164 -46 164 -50 164 C-50.18696395 147.15388787 -50.32799424 130.30809992 -50.41449738 113.46118736 C-50.45573189 105.63864821 -50.51193721 97.81675403 -50.60351562 89.99462891 C-50.68330714 83.17601992 -50.73487792 76.35787802 -50.75270796 69.53881514 C-50.76312961 65.92857191 -50.78757919 62.31966479 -50.84584045 58.70985031 C-50.91039136 54.67754881 -50.91191611 50.64756264 -50.90820312 46.61474609 C-50.95134644 44.82370956 -50.95134644 44.82370956 -50.99536133 42.99649048 C-50.91627974 35.07138559 -50.91627974 35.07138559 -48.25573063 31.96046448 C-46.23439142 30.42513372 -44.23532422 29.194749 -42 28 C-41.08210693 27.34290039 -40.16421387 26.68580078 -39.21850586 26.00878906 C-37.97919312 25.14592285 -37.97919312 25.14592285 -36.71484375 24.265625 C-35.77866211 23.61352051 -34.84248047 22.96141602 -33.87792969 22.28955078 C-32.90758789 21.61649902 -31.93724609 20.94344727 -30.9375 20.25 C-29.42591309 19.19981689 -29.42591309 19.19981689 -27.88378906 18.12841797 C-19.98605393 12.65445313 -12.02644083 7.28293987 -4 2 C-1 0 -1 0 0 0 Z " fill="#847CD9" transform="translate(573,396)"/>
<path d="M0 0 C-3.26393204 2.17595469 -5.17313539 2.48418069 -9 3.125 C-18.55712885 5.08771274 -27.18034207 8.90502334 -36 13 C-36.66676758 13.30534668 -37.33353516 13.61069336 -38.02050781 13.92529297 C-64.78430784 26.41000526 -85.87167558 48.473524 -96.31591797 76.07568359 C-102.8842481 94.55233532 -101.34419393 113.36801516 -93.6484375 131.1171875 C-89.93642119 138.43753251 -84.80635295 145.19364705 -79 151 C-78.99413376 149.94257095 -78.98826752 148.88514191 -78.98222351 147.79566956 C-78.92488643 137.80606354 -78.85206763 127.81667292 -78.76428509 117.82728672 C-78.71965284 112.69224698 -78.68038101 107.55728527 -78.65356445 102.42211914 C-78.62746015 97.46176576 -78.58700751 92.50171382 -78.53681374 87.54154778 C-78.52019313 85.65387676 -78.50864904 83.76615367 -78.50238609 81.87841988 C-78.49269249 79.22404882 -78.46457135 76.57044065 -78.43237305 73.91625977 C-78.43380814 73.14445374 -78.43524323 72.37264771 -78.4367218 71.57745361 C-78.27110584 61.85579664 -74.92339099 53.8590472 -68 47 C-61.01698648 41.87554239 -55.74751325 39.87095771 -47.12011719 39.88647461 C-46.09511612 39.88625557 -46.09511612 39.88625557 -45.04940796 39.8860321 C-42.79853096 39.88672685 -40.54773748 39.89449868 -38.296875 39.90234375 C-36.7331751 39.90420949 -35.16947462 39.90563266 -33.60577393 39.90663147 C-29.49583311 39.91044438 -25.38592779 39.9202642 -21.27600098 39.93133545 C-17.07983887 39.94157593 -12.88367101 39.94613474 -8.6875 39.95117188 C-0.45831525 39.96188758 7.77083387 39.97947445 16 40 C16 46.93 16 53.86 16 61 C14.02684814 61.00410889 12.05369629 61.00821777 10.02075195 61.01245117 C3.49462546 61.03186255 -3.03103912 61.07419074 -9.5569334 61.13209057 C-13.51288593 61.16635267 -17.46845263 61.19146922 -21.42456055 61.19555664 C-25.24395479 61.19984145 -29.06247879 61.22831745 -32.88160133 61.27343178 C-34.33715556 61.28640126 -35.79281396 61.29071634 -37.24841881 61.28615379 C-39.29115619 61.28124304 -41.33135454 61.30735148 -43.3737793 61.34057617 C-44.53515915 61.34723801 -45.696539 61.35389984 -46.89311218 61.36076355 C-51.15903749 62.23846983 -52.53211942 63.40716244 -55 67 C-55.71951857 70.40565473 -55.69048571 73.73536493 -55.65942383 77.20629883 C-55.67514938 78.74358139 -55.67514938 78.74358139 -55.69119263 80.31192017 C-55.71995652 83.69393132 -55.71364917 87.07491962 -55.70703125 90.45703125 C-55.72014539 92.80402409 -55.73544873 95.15100564 -55.75285339 97.49797058 C-55.79274895 103.67115212 -55.80289685 109.84403872 -55.80688477 116.01733398 C-55.8162075 122.31828789 -55.85361574 128.61906788 -55.88867188 134.91992188 C-55.95329435 147.27993976 -55.98649631 159.63982797 -56 172 C-57.5809968 171.54160252 -59.16075401 171.07892857 -60.73999023 170.61450195 C-61.61985092 170.35731888 -62.49971161 170.1001358 -63.40623474 169.8351593 C-67.14750842 168.63051694 -70.57874772 166.99124368 -74.0625 165.1875 C-74.7544043 164.83204102 -75.44630859 164.47658203 -76.15917969 164.11035156 C-95.48040412 154.04589036 -108.00624512 139.76901529 -114.68359375 118.859375 C-119.99447625 97.90885922 -114.4866463 76.30065127 -104 58 C-85.90762442 28.50266769 -56.34834276 10.70244512 -23.28369141 2.53857422 C-15.42825495 0.68598786 -8.0656747 -0.26885582 0 0 Z " fill="#456ACE" transform="translate(442,412)"/>
<path d="M0 0 C0.81082031 0.4846875 1.62164062 0.969375 2.45703125 1.46875 C3.37742187 2.0153125 4.2978125 2.561875 5.24609375 3.125 C6.64988281 4.03765625 6.64988281 4.03765625 8.08203125 4.96875 C9.49355469 5.88140625 9.49355469 5.88140625 10.93359375 6.8125 C12.77948773 8.02404651 14.619882 9.24398383 16.45703125 10.46875 C16.74369212 12.98263117 16.83565748 15.24949913 16.79760742 17.76416016 C16.79826454 18.89113564 16.79826454 18.89113564 16.79893494 20.0408783 C16.79684094 22.53011858 16.77348187 25.01868955 16.75 27.5078125 C16.7444062 29.23130933 16.74013508 30.95481091 16.73713684 32.67831421 C16.72567101 37.21912763 16.69618905 41.75965412 16.6630249 46.300354 C16.63236135 50.93196735 16.61863947 55.56362696 16.60351562 60.1953125 C16.57132088 69.28658455 16.52010368 78.37764343 16.45703125 87.46875 C14.42715877 87.94934744 12.39647884 88.4265351 10.36547852 88.90234375 C9.23473404 89.16845459 8.10398956 89.43456543 6.9389801 89.70874023 C0.38992223 91.13821211 -6.24665285 91.99607227 -12.88085938 92.9296875 C-20.23969798 94.00551531 -27.36289324 95.53015385 -34.54296875 97.46875 C-33.79987231 93.59376995 -32.7789681 89.92473282 -31.60546875 86.15625 C-28.09575319 73.80255806 -27.43475276 61.37335766 -26.67163086 48.60754395 C-26.38034434 43.7653892 -26.07369537 38.92418167 -25.76660156 34.08300781 C-25.63188741 31.90581529 -25.50406847 29.72815802 -25.38964844 27.54980469 C-24.76799625 16.12303242 -24.76799625 16.12303242 -22.09375 12.51171875 C-20.01621601 10.86101564 -17.87868533 9.72946552 -15.54296875 8.46875 C-14.45089132 7.68086007 -13.37093573 6.87601227 -12.30078125 6.05859375 C-11.73270752 5.6318335 -11.16463379 5.20507324 -10.5793457 4.76538086 C-9.44680826 3.91353178 -8.32010255 3.0538629 -7.19995117 2.18579102 C-3.22249934 -0.67321031 -3.22249934 -0.67321031 0 0 Z " fill="#6132CA" transform="translate(440.54296875,491.53125)"/>
<path d="M0 0 C1.03253906 0.00902344 2.06507813 0.01804687 3.12890625 0.02734375 C4.27166016 0.04474609 4.27166016 0.04474609 5.4375 0.0625 C5.128125 0.949375 4.81875 1.83625 4.5 2.75 C3.42793852 6.42597654 3.13651612 10.01807911 2.87109375 13.83203125 C2.7462561 15.58350464 2.7462561 15.58350464 2.61889648 17.37036133 C2.55903564 18.25876709 2.4991748 19.14717285 2.4375 20.0625 C1.70039795 20.09690186 0.9632959 20.13130371 0.20385742 20.16674805 C-23.95872633 21.3704915 -47.19416369 24.83042742 -70.50488281 31.47607422 C-72.51824589 32.04988747 -74.53556913 32.60698 -76.5546875 33.16015625 C-95.01833005 38.29328309 -112.65603781 46.22642825 -129.63085938 55.06640625 C-131.57141037 56.06709483 -133.52575946 57.03522202 -135.484375 58 C-153.34778135 66.94681969 -170.05160994 78.50289517 -185.5625 91.0625 C-186.47386719 91.77148438 -187.38523437 92.48046875 -188.32421875 93.2109375 C-195.9851154 99.26534084 -202.76775927 106.07331517 -209.5625 113.0625 C-209.5625 109.27804127 -208.67864319 108.77912507 -206.09765625 106.12109375 C-205.38029297 105.37279297 -204.66292969 104.62449219 -203.92382812 103.85351562 C-203.16521484 103.07685547 -202.40660156 102.30019531 -201.625 101.5 C-200.1347939 99.95889019 -198.64641884 98.41600706 -197.16015625 96.87109375 C-196.49508057 96.18845459 -195.83000488 95.50581543 -195.14477539 94.80249023 C-193.48706518 93.13736931 -193.48706518 93.13736931 -192.5625 91.0625 C-191.9025 91.0625 -191.2425 91.0625 -190.5625 91.0625 C-190.0675 89.5775 -190.0675 89.5775 -189.5625 88.0625 C-188.06640625 86.5546875 -188.06640625 86.5546875 -186.125 84.9375 C-182.97431869 82.27282804 -179.90694867 79.54910294 -176.875 76.75 C-131.55116384 36.02025918 -62.41562806 -0.71742101 0 0 Z " fill="#4E5FC2" transform="translate(573.5625,287.9375)"/>
<path d="M0 0 C-3.26393204 2.17595469 -5.17313539 2.48418069 -9 3.125 C-18.55712885 5.08771274 -27.18034207 8.90502334 -36 13 C-36.66676758 13.30534668 -37.33353516 13.61069336 -38.02050781 13.92529297 C-64.78430784 26.41000526 -85.87167558 48.473524 -96.31591797 76.07568359 C-102.8842481 94.55233532 -101.34419393 113.36801516 -93.6484375 131.1171875 C-90.51260883 137.30125186 -86.38852468 142.46347575 -81.85546875 147.6875 C-80 150 -80 150 -79 153 C-78.40574219 153.29003906 -77.81148438 153.58007812 -77.19921875 153.87890625 C-74.26993596 155.37216408 -72.83070614 157.3588914 -70.8125 159.9375 C-70.11769531 160.81277344 -69.42289062 161.68804688 -68.70703125 162.58984375 C-67 165 -67 165 -66 168 C-78.30198134 164.51443862 -87.99232669 157.97719049 -97 149 C-97.71027344 148.31292969 -98.42054688 147.62585938 -99.15234375 146.91796875 C-111.79788178 133.83554074 -116.42808364 116.47031112 -116.36572266 98.73681641 C-115.78160961 73.47976814 -102.24821094 51.44590683 -84.67407227 34.06884766 C-62.98617724 13.63312714 -30.05715342 -1.00190511 0 0 Z " fill="#6535D0" transform="translate(442,412)"/>
<path d="M0 0 C4.8720221 0.59396566 9.05185726 2.07000635 13.5 4.0625 C14.19778564 4.37485596 14.89557129 4.68721191 15.61450195 5.0090332 C35.82556438 14.2296006 52.3164564 26.64185352 60.9921875 47.78515625 C63.54275379 55.92126498 64.36182685 63.74576546 64.3125 72.25 C64.30512817 73.7649707 64.30512817 73.7649707 64.29760742 75.31054688 C64.1735829 83.25320466 63.28656314 90.3597569 61 98 C60.64808594 99.216875 60.29617188 100.43375 59.93359375 101.6875 C57.15027789 110.65290025 53.41954924 118.73404192 49 127 C47.78435279 123.35305838 48.3903111 122.21602573 49.4375 118.5625 C51.13777567 111.02146255 51.37698288 103.65470412 51.4375 95.9375 C51.4593335 94.76711182 51.48116699 93.59672363 51.50366211 92.39086914 C51.46527512 74.69694527 44.18424179 59.2348768 31.85546875 46.76953125 C21.65258934 36.87371524 10.54297847 30.54520449 -2 24 C-1.125 18.25 -1.125 18.25 0 16 C0.07181821 13.28239892 0.09299506 10.59140612 0.0625 7.875 C0.05798828 7.12089844 0.05347656 6.36679687 0.04882812 5.58984375 C0.03703499 3.72652873 0.01909942 1.86325445 0 0 Z " fill="#5359C3" transform="translate(639,294)"/>
<path d="M0 0 C0.66 0.33 1.32 0.66 2 1 C2.88413906 39.00921417 3.13378545 76.99065985 3.07202661 115.00758386 C3.06050615 122.23469811 3.0552672 129.46181378 3.05032361 136.68893504 C3.04009125 151.45929975 3.0227074 166.22964884 3 181 C-0.61973402 182.31626692 -3.09567131 183 -7 183 C-7.16354503 160.17346809 -7.28697264 137.34703283 -7.3626852 114.52003384 C-7.39877486 103.92095285 -7.44797501 93.32223596 -7.52807617 82.72338867 C-7.59786185 73.48506316 -7.64301123 64.24700134 -7.65861946 55.00841957 C-7.66774294 50.11681193 -7.68917289 45.22595861 -7.7401104 40.33459282 C-7.78768346 35.72891735 -7.8022691 31.12430566 -7.79175377 26.51840782 C-7.79367693 24.82971665 -7.80756735 23.1409893 -7.83443832 21.45251083 C-8.02805761 8.65670237 -8.02805761 8.65670237 -5.38820076 4.40260506 C-3.67745323 2.67052035 -2.06245274 1.28320068 0 0 Z " fill="#3B60BA" transform="translate(509,384)"/>
<path d="M0 0 C1.33534437 0.66262934 2.66803362 1.33060641 4 2 C4.97485352 2.4643042 5.94970703 2.9286084 6.95410156 3.40698242 C11.77192072 6.06948086 15.29410956 8.06327604 17.23242188 13.38134766 C17.76394985 17.39934753 17.89317351 21.27382614 17.75 25.3125 C17.74016083 26.01275299 17.73032166 26.71300598 17.72018433 27.43447876 C17.4350854 40.41329486 17.4350854 40.41329486 12.98828125 45.0546875 C9.72009713 47.55301191 6.11670009 49.22083986 2.35791016 50.85595703 C-1.8695127 52.90707564 -5.50031588 55.81856067 -9.25 58.625 C-10.64484162 59.6465409 -12.04550216 60.66020649 -13.453125 61.6640625 C-14.04254883 62.09154785 -14.63197266 62.5190332 -15.23925781 62.95947266 C-17.14786748 64.08738369 -18.85133994 64.50549246 -21 65 C-21.40827042 58.0827211 -21.68683343 51.16856961 -21.87890625 44.24194336 C-21.95900468 41.89082849 -22.06793703 39.54050187 -22.20703125 37.19213867 C-23.3044655 18.17666955 -23.3044655 18.17666955 -19.45849609 12.87506104 C-15.72312357 9.37570826 -11.52027945 7.07509671 -6.89648438 4.94741821 C-4.2952107 3.64791157 -2.17756478 1.91045945 0 0 Z " fill="#6962C9" transform="translate(544,352)"/>
<path d="M0 0 C6.51489375 2.33609791 10.89193731 7.38617824 14.3125 13.25 C15.99119881 19.96479523 15.82294402 25.2643767 12.375 31.375 C8.44679287 37.25808956 3.88179657 40.31466206 -3 42 C-8.58847249 42.51745116 -13.0765572 41.60165083 -18 39 C-22.09924383 35.53841632 -24.62111681 31.75776638 -27 27 C-27.98863995 13.23508993 -27.98863995 13.23508993 -24 8 C-16.18274828 0.34261028 -11.0898661 -1.07124941 0 0 Z " fill="#368DE3" transform="translate(614,283)"/>
<path d="M0 0 C5.71549196 2.19169825 10.88660782 4.32004801 15 9 C16.56651158 14.14032804 16.58963076 19.06518296 16.4375 24.375 C16.43247467 25.07698517 16.42744934 25.77897034 16.42227173 26.50222778 C16.25918797 39.53372719 16.25918797 39.53372719 12.171875 44.03515625 C8.24269575 47.15656725 4.0523995 49 -1 49 C-1.02532428 42.50383332 -1.04285601 36.00767934 -1.05493164 29.51147461 C-1.059965 27.30085779 -1.06679217 25.09024431 -1.07543945 22.87963867 C-1.08754859 19.704907 -1.09323825 16.53021928 -1.09765625 13.35546875 C-1.10539818 11.86940376 -1.10539818 11.86940376 -1.11329651 10.35331726 C-1.11337204 9.43258926 -1.11344757 8.51186127 -1.11352539 7.56323242 C-1.115746 6.7527092 -1.11796661 5.94218597 -1.12025452 5.10710144 C-1 3 -1 3 0 0 Z " fill="#4349B7" transform="translate(545,353)"/>
<path d="M0 0 C11.22 0 22.44 0 34 0 C32.12834925 3.74330151 30.08877612 6.68141068 27.5625 10 C26.78003906 11.03125 25.99757813 12.0625 25.19140625 13.125 C24.46824219 14.07375 23.74507812 15.0225 23 16 C22.5560791 16.71124023 22.1121582 17.42248047 21.65478516 18.15527344 C20 20 20 20 17.82348633 20.45410156 C17.00130615 20.4331543 16.17912598 20.41220703 15.33203125 20.390625 C14.52741455 20.38063477 13.72279785 20.37064453 12.89379883 20.36035156 C11.36855591 20.30572754 11.36855591 20.30572754 9.8125 20.25 C6.574375 20.1675 3.33625 20.085 0 20 C0 13.4 0 6.8 0 0 Z " fill="#4A75D2" transform="translate(636,452)"/>
<path d="M0 0 C38.94 0 77.88 0 118 0 C117.67 1.32 117.34 2.64 117 4 C78.72 4 40.44 4 1 4 C0.67 2.68 0.34 1.36 0 0 Z " fill="#2C3588" transform="translate(576,688)"/>
<path d="M0 0 C0.33 0 0.66 0 1 0 C1.33 22.77 1.66 45.54 2 69 C-1.96 69.99 -5.92 70.98 -10 72 C-9.21409596 68.0704798 -8.24848483 64.49607769 -7.0625 60.6875 C-2.9254848 46.12580389 -2.53076512 31.04178389 -1.69677734 16.00634766 C-1.63809731 14.9768676 -1.63809731 14.9768676 -1.57823181 13.92658997 C-1.47103122 12.03496326 -1.36807591 10.14309736 -1.26538086 8.2512207 C-1.03420497 5.41905027 -0.63031317 2.76664678 0 0 Z " fill="#C18BCB" transform="translate(416,517)"/>
<path d="M0 0 C0.66 0.33 1.32 0.66 2 1 C1.23816406 1.67804688 0.47632813 2.35609375 -0.30859375 3.0546875 C-10.02514848 11.77382137 -18.46986171 20.364794 -24.90698242 31.82324219 C-26.91315847 35.37008308 -28.80821146 38.42326199 -32 41 C-32.99 41 -33.98 41 -35 41 C-35.33 39.35 -35.66 37.7 -36 36 C-37.32 36.99 -38.64 37.98 -40 39 C-40.66 38.67 -41.32 38.34 -42 38 C-41.25234375 37.19175781 -40.5046875 36.38351562 -39.734375 35.55078125 C-38.73949763 34.47143316 -37.74471077 33.39200163 -36.75 32.3125 C-36.25886719 31.78205078 -35.76773437 31.25160156 -35.26171875 30.70507812 C-33.03652223 28.28703124 -30.89450708 25.86775163 -28.84375 23.296875 C-21.3427932 13.95246271 -9.91874578 6.61249719 0 0 Z " fill="#363D87" transform="translate(354,441)"/>
<path d="M0 0 C0.66 0.33 1.32 0.66 2 1 C-6.89692799 8.00758377 -15.79888611 14.97628065 -25.05957031 21.49902344 C-30.79992227 25.54328553 -36.40484212 29.75751765 -42 34 C-43.32 33.01 -44.64 32.02 -46 31 C-45.63702202 28.44242233 -45.33119581 27.28429953 -43.33959961 25.57470703 C-42.61780518 25.14013184 -41.89601074 24.70555664 -41.15234375 24.2578125 C-40.33032471 23.75523926 -39.50830566 23.25266602 -38.66137695 22.73486328 C-37.76249756 22.2036084 -36.86361816 21.67235352 -35.9375 21.125 C-35.01606201 20.56925293 -34.09462402 20.01350586 -33.14526367 19.44091797 C-30.10449011 17.61416467 -27.05225583 15.8074916 -24 14 C-21.77847379 12.66695333 -19.55712152 11.33361676 -17.3359375 10 C-15.16238168 8.70678017 -12.98792216 7.41507785 -10.8125 6.125 C-9.76763428 5.49996582 -8.72276855 4.87493164 -7.64624023 4.23095703 C-6.67630127 3.66231934 -5.7063623 3.09368164 -4.70703125 2.5078125 C-3.8456958 1.99879395 -2.98436035 1.48977539 -2.09692383 0.96533203 C-1.40493896 0.64677246 -0.7129541 0.32821289 0 0 Z " fill="#D0ABD5" transform="translate(510,380)"/>
<path d="M0 0 C3.5371438 0.56132934 4.99261679 1.69557747 7.25 4.4375 C7.77078125 5.05496094 8.2915625 5.67242188 8.828125 6.30859375 C10 8 10 8 10 10 C10.57363281 10.22816406 11.14726562 10.45632813 11.73828125 10.69140625 C14.60384519 12.34937502 16.15128793 14.33588571 18.1875 16.9375 C18.88230469 17.81277344 19.57710938 18.68804688 20.29296875 19.58984375 C22 22 22 22 23 25 C13.79600943 22.39220267 3.73521019 18.64037367 -1.125 10 C-2 8 -2 8 -2 5 C-0.5 3.3125 -0.5 3.3125 1 2 C0.67 1.34 0.34 0.68 0 0 Z " fill="#5B3BC4" transform="translate(353,555)"/>
<path d="M0 0 C0 3 0 3 -1.28515625 4.54296875 C-1.87167969 5.08566406 -2.45820312 5.62835937 -3.0625 6.1875 C-5.51839879 8.53640914 -7.8164705 10.89677912 -10 13.5 C-15.91160104 20.38093978 -22.54940944 26.63027509 -29 33 C-29.66 32.67 -30.32 32.34 -31 32 C-31 31.34 -31 30.68 -31 30 C-33.64 30 -36.28 30 -39 30 C-35.11620811 26.83570074 -31.11756844 23.87449343 -27.0625 20.9375 C-17.83533325 14.21570016 -8.90839236 7.1366489 0 0 Z " fill="#484FB5" transform="translate(673,520)"/>
<path d="M0 0 C1.485 0.495 1.485 0.495 3 1 C3.69068202 7.33125182 2.60344114 10.8521476 -1.14453125 16.015625 C-5.28487051 20.44360888 -11.20076302 22.780452 -17.1875 23.25 C-21.49608246 22.96747 -25.21207795 22.11601163 -29 20 C-29.66 19.01 -30.32 18.02 -31 17 C-29.68 16.67 -28.36 16.34 -27 16 C-27 16.66 -27 17.32 -27 18 C-25.14375 17.7525 -25.14375 17.7525 -23.25 17.5 C-19.33568939 17.02854579 -15.62295629 17.07616389 -11.6875 17.25 C-7.08295707 17.3585775 -7.08295707 17.3585775 -3.3125 14.8125 C-1.4947033 10.91722136 -1 8.04082403 -1 3.75 C-1 1 -1 1 0 0 Z " fill="#465CCE" transform="translate(625,302)"/>
<path d="M0 0 C2.475 0.99 2.475 0.99 5 2 C4.34 2.66 3.68 3.32 3 4 C1.95512402 10.62341644 1.89848272 17.11752996 1.96875 23.80859375 C2.02278991 34.38715562 1.93872379 44.95811379 1.78125 55.53515625 C1.77017212 56.28915081 1.75909424 57.04314537 1.74768066 57.81998825 C1.67938772 62.44748992 1.60836408 67.07494613 1.53643799 71.70239258 C1.47472831 75.69936068 1.41520629 79.6963614 1.35546875 83.69335938 C1.23905095 91.46227198 1.12031913 99.23114673 1 107 C0.67 107 0.34 107 0 107 C0 71.69 0 36.38 0 0 Z " fill="#A674C6" transform="translate(584,329)"/>
<path d="M0 0 C14.52 0 29.04 0 44 0 C43.67 1.65 43.34 3.3 43 5 C28.33590784 5.37924376 14.43656311 3.57014571 0 1 C0 0.67 0 0.34 0 0 Z " fill="#4976D4" transform="translate(400,593)"/>
<path d="M0 0 C0.33 0 0.66 0 1 0 C1 7.92 1 15.84 1 24 C1.66 24.33 2.32 24.66 3 25 C2.649375 25.7425 2.29875 26.485 1.9375 27.25 C0.95490707 30.1322726 0.9673198 31.21176345 2 34 C0.515 34.495 0.515 34.495 -1 35 C-3.20369473 28.7664412 -3.33335814 22.94948625 -3.3125 16.375 C-3.32861328 15.35148438 -3.34472656 14.32796875 -3.36132812 13.2734375 C-3.36742769 3.90451109 -3.36742769 3.90451109 0 0 Z " fill="#303789" transform="translate(295,521)"/>
<path d="M0 0 C0 19.14 0 38.28 0 58 C-0.33 58 -0.66 58 -1 58 C-1.33 40.18 -1.66 22.36 -2 4 C-9.14515884 8.92701409 -9.14515884 8.92701409 -9.88647461 13.80224609 C-9.92677653 15.20874255 -9.93048039 16.6166451 -9.90234375 18.0234375 C-9.91463516 18.76961334 -9.92692657 19.51578918 -9.93959045 20.28457642 C-9.97118125 22.64906755 -9.95508862 25.01041508 -9.9375 27.375 C-9.95061755 28.9857059 -9.96686171 30.59638957 -9.98632812 32.20703125 C-10.02706063 36.13868661 -10.02506127 40.06823584 -10 44 C-10.33 44 -10.66 44 -11 44 C-11.33 33.11 -11.66 22.22 -12 11 C-12.66 10.67 -13.32 10.34 -14 10 C-11.85637773 8.33041937 -9.71026458 6.66423643 -7.5625 5 C-6.95083984 4.52304687 -6.33917969 4.04609375 -5.70898438 3.5546875 C-1.11328125 0 -1.11328125 0 0 0 Z " fill="#5AAAE3" transform="translate(512,381)"/>
<path d="M0 0 C0.33 0 0.66 0 1 0 C1.50929172 7.25740701 1.50929172 7.25740701 -1.00390625 10.921875 C-4.28635129 16.34336792 -3.37961896 22.5689995 -3.1875 28.6875 C-3.13518584 31.10798704 -3.08683564 33.52856389 -3.04296875 35.94921875 C-3.01227295 37.01487061 -2.98157715 38.08052246 -2.94995117 39.1784668 C-2.99404444 41.66425168 -3.26823361 43.63908494 -4 46 C-4.66 46 -5.32 46 -6 46 C-6 33.13 -6 20.26 -6 7 C-5.34 7 -4.68 7 -4 7 C-3.67 7.66 -3.34 8.32 -3 9 C-2.01 6.03 -1.02 3.06 0 0 Z " fill="#2B3489" transform="translate(318,489)"/>
<path d="M0 0 C0.33 0 0.66 0 1 0 C1.9317945 8.3299032 2.15496501 16.56013843 2.125 24.9375 C2.12411377 25.5967749 2.12322754 26.2560498 2.12231445 26.93530273 C2.09150233 46.96081248 1.52036714 66.98247246 1 87 C3.5609294 85.20142332 3.5609294 85.20142332 6 83 C6 82.01 6 81.02 6 80 C7.32 80.33 8.64 80.66 10 81 C10 81.99 10 82.98 10 84 C8.3203125 85.38671875 8.3203125 85.38671875 6.125 86.6875 C5.40570312 87.12449219 4.68640625 87.56148437 3.9453125 88.01171875 C2 89 2 89 0 89 C0 59.63 0 30.26 0 0 Z " fill="#392C99" transform="translate(585,439)"/>
<path d="M0 0 C9.85743026 2.25199809 20.04264655 5.55741986 28 12 C27.01 12.99 26.02 13.98 25 15 C26.32 15.66 27.64 16.32 29 17 C28.67 17.99 28.34 18.98 28 20 C27.26910156 19.27296875 27.26910156 19.27296875 26.5234375 18.53125 C19.96950346 12.33480327 12.85014652 8.27586483 5 4 C3.31202221 3.0364084 1.63635475 2.04886649 0 1 C0 0.67 0 0.34 0 0 Z " fill="#4B7ED4" transform="translate(663,289)"/>
<path d="M0 0 C0.33 0 0.66 0 1 0 C1 16.83 1 33.66 1 51 C-1.97 51.66 -4.94 52.32 -8 53 C-8 50.36 -8 47.72 -8 45 C-5.36 45.33 -2.72 45.66 0 46 C0 30.82 0 15.64 0 0 Z " fill="#3A4399" transform="translate(511,514)"/>
<path d="M0 0 C1.17175781 0.01353516 1.17175781 0.01353516 2.3671875 0.02734375 C2.94726562 0.03894531 3.52734375 0.05054688 4.125 0.0625 C0.78619253 2.28837165 -1.51602926 2.70572171 -5.4375 3.4375 C-10.90753953 4.54170053 -15.80155803 6.01105629 -20.88671875 8.29296875 C-22.875 9.0625 -22.875 9.0625 -25.875 9.0625 C-27.5625 7.0625 -27.5625 7.0625 -28.875 5.0625 C-26.00043719 4.41466876 -23.12538241 3.76917482 -20.25 3.125 C-19.44175781 2.94259766 -18.63351562 2.76019531 -17.80078125 2.57226562 C-5.89616389 -0.08933582 -5.89616389 -0.08933582 0 0 Z " fill="#6C40CB" transform="translate(437.875,411.9375)"/>
<path d="M0 0 C2.606423 3.9096345 3.12313717 5.58903533 3.09765625 10.2265625 C3.09282227 11.7734375 3.09282227 11.7734375 3.08789062 13.3515625 C3.07951172 14.43179687 3.07113281 15.51203125 3.0625 16.625 C3.05798828 17.71296875 3.05347656 18.8009375 3.04882812 19.921875 C3.03701776 22.61463789 3.02054778 25.30729188 3 28 C2.34 28 1.68 28 1 28 C-1.33523916 24.49714126 -1.18495942 23.34370062 -0.9765625 19.23828125 C-0.925 18.12001953 -0.8734375 17.00175781 -0.8203125 15.84960938 C-0.75585938 14.68236328 -0.69140625 13.51511719 -0.625 12.3125 C-0.56828125 11.13365234 -0.5115625 9.95480469 -0.453125 8.74023438 C-0.31155328 5.82621648 -0.16013058 2.91304743 0 0 Z " fill="#4E7ED1" transform="translate(737,361)"/>
<path d="M0 0 C1.32 0.33 2.64 0.66 4 1 C2.80521666 4.58435001 1.74132097 5.16528225 -1.25 7.375 C-8.08367171 12.66366767 -13.98775479 18.81813032 -20 25 C-20 21.21554127 -19.11614319 20.71662507 -16.53515625 18.05859375 C-15.81779297 17.31029297 -15.10042969 16.56199219 -14.36132812 15.79101562 C-13.2234082 14.62602539 -13.2234082 14.62602539 -12.0625 13.4375 C-10.5722939 11.89639019 -9.08391884 10.35350706 -7.59765625 8.80859375 C-6.93258057 8.12595459 -6.26750488 7.44331543 -5.58227539 6.73999023 C-3.92456518 5.07486931 -3.92456518 5.07486931 -3 3 C-2.34 3 -1.68 3 -1 3 C-0.67 2.01 -0.34 1.02 0 0 Z " fill="#4D63C2" transform="translate(384,376)"/>
<path d="M0 0 C0.33 0.66 0.66 1.32 1 2 C1.66 2.33 2.32 2.66 3 3 C3.33 3.99 3.66 4.98 4 6 C2.02 7.65 0.04 9.3 -2 11 C-2.33 10.01 -2.66 9.02 -3 8 C-5.64 8 -8.28 8 -11 8 C-7.45960866 5.0843836 -3.8373228 2.49872182 0 0 Z " fill="#5359C4" transform="translate(645,542)"/>
<path d="M0 0 C0.33 0 0.66 0 1 0 C1.33 6.27 1.66 12.54 2 19 C0.35 19 -1.3 19 -3 19 C-3.92565097 15.95161559 -4.04155806 13.53510031 -3.6875 10.375 C-3.60886719 9.59898437 -3.53023438 8.82296875 -3.44921875 8.0234375 C-3 6 -3 6 -1 4 C-0.3574765 1.93125966 -0.3574765 1.93125966 0 0 Z " fill="#9D61B3" transform="translate(416,567)"/>
<path d="M0 0 C0.144375 0.639375 0.28875 1.27875 0.4375 1.9375 C0.81007181 3.97545146 0.81007181 3.97545146 2 5 C2.07226502 6.85287502 2.0838122 8.70833878 2.0625 10.5625 C2.05347656 11.57441406 2.04445313 12.58632813 2.03515625 13.62890625 C2.02355469 14.41136719 2.01195312 15.19382812 2 16 C1.01 16.33 0.02 16.66 -1 17 C-3.27611503 12.59002713 -3.8494418 7.87744001 -3 3 C-1.48046875 1.2265625 -1.48046875 1.2265625 0 0 Z " fill="#3582DE" transform="translate(590,298)"/>
<path d="M0 0 C0.99 0.33 1.98 0.66 3 1 C3.71589017 7.56232652 2.3492124 10.82570166 -1.39453125 16.21484375 C-3 18 -3 18 -6 19 C-4.79979936 15.9137698 -3.47980528 12.95961056 -2 10 C-0.83529804 7.03294039 -0.83529804 7.03294039 -1 3.875 C-1 1 -1 1 0 0 Z " fill="#3874D8" transform="translate(625,302)"/>
<path d="M0 0 C-0.86625 0.39832031 -0.86625 0.39832031 -1.75 0.8046875 C-8.90085277 4.60357803 -12.75697822 9.76556679 -16 17 C-16.66 17.33 -17.32 17.66 -18 18 C-17.87436709 11.96962041 -15.96111731 9.0784419 -11.8359375 4.734375 C-8.01786526 1.12751527 -5.30561468 -0.45476697 0 0 Z " fill="#32AAEA" transform="translate(605,283)"/>
<path d="M0 0 C0 2.97 0 5.94 0 9 C0.66 9.33 1.32 9.66 2 10 C-0.97 10.66 -3.94 11.32 -7 12 C-6.32784675 8.1911316 -5.46704554 4.58611131 -4 1 C-1 0 -1 0 0 0 Z " fill="#B77DBC" transform="translate(413,577)"/>
<path d="M0 0 C4.10444167 0.13867261 8.2084704 0.28716103 12.3125 0.4375 C13.47974609 0.47681641 14.64699219 0.51613281 15.84960938 0.55664062 C17.52700195 0.61948242 17.52700195 0.61948242 19.23828125 0.68359375 C20.26993408 0.72025146 21.30158691 0.75690918 22.36450195 0.79467773 C25 1 25 1 28 2 C28 2.66 28 3.32 28 4 C18.38299968 4.56081859 9.38346453 2.84809149 0 1 C0 0.67 0 0.34 0 0 Z " fill="#5A86D5" transform="translate(400,593)"/>
<path d="M0 0 C0.66 0.33 1.32 0.66 2 1 C0.08539961 2.77311263 -1.83157493 4.54353362 -3.75 6.3125 C-4.55824219 7.06176758 -4.55824219 7.06176758 -5.3828125 7.82617188 C-8.15603952 10.37956993 -10.92190229 12.81096449 -14 15 C-14.66 14.67 -15.32 14.34 -16 14 C-14.46642041 9.37766153 -10.71292205 7.3643469 -6.875 4.75 C-6.21628906 4.29109375 -5.55757813 3.8321875 -4.87890625 3.359375 C-3.2579995 2.23178769 -1.62970314 1.11483609 0 0 Z " fill="#535790" transform="translate(354,441)"/>
<path d="M0 0 C0.33 0 0.66 0 1 0 C1 12.54 1 25.08 1 38 C0.67 38 0.34 38 0 38 C-0.33 28.43 -0.66 18.86 -1 9 C-1.99 9.495 -1.99 9.495 -3 10 C-2.01 6.7 -1.02 3.4 0 0 Z " fill="#45509B" transform="translate(709,635)"/>
<path d="M0 0 C0 0.99 0 1.98 0 3 C-6.65941972 4.27947184 -10.81546992 3.81115003 -17 1 C-17 0.67 -17 0.34 -17 0 C-11.1314592 -1.14819277 -5.9114744 -0.77313045 0 0 Z " fill="#4728AE" transform="translate(456,576)"/>
<path d="M0 0 C1.32 1.32 2.64 2.64 4 4 C2.68 5.65 1.36 7.3 0 9 C-0.99 8.67 -1.98 8.34 -3 8 C-3.33 6.35 -3.66 4.7 -4 3 C-2.68 2.01 -1.36 1.02 0 0 Z " fill="#4B52BE" transform="translate(650,538)"/>
<path d="M0 0 C0.66 0.33 1.32 0.66 2 1 C0.11214091 2.49041507 -1.78418108 3.96705783 -3.6875 5.4375 C-4.48317383 6.06881836 -4.48317383 6.06881836 -5.29492188 6.71289062 C-8.4860575 9.16008052 -10.97547923 10.58933461 -15 11 C-15.33 10.34 -15.66 9.68 -16 9 C-13.38029207 7.46935061 -10.75498357 5.95030252 -8.125 4.4375 C-7.37863281 3.99986328 -6.63226563 3.56222656 -5.86328125 3.11132812 C-5.14785156 2.70205078 -4.43242187 2.29277344 -3.6953125 1.87109375 C-3.03547363 1.48880615 -2.37563477 1.10651855 -1.69580078 0.71264648 C-1.13618652 0.47747314 -0.57657227 0.2422998 0 0 Z " fill="#D3B4DB" transform="translate(510,380)"/>
<path d="M0 0 C1.35015836 2.70031673 0.63106793 4.08174081 0 7 C-0.13918537 8.69157394 -0.2435836 10.38630373 -0.31640625 12.08203125 C-0.35830078 13.01337891 -0.40019531 13.94472656 -0.44335938 14.90429688 C-0.48267578 15.86400391 -0.52199219 16.82371094 -0.5625 17.8125 C-0.60568359 18.79154297 -0.64886719 19.77058594 -0.69335938 20.77929688 C-0.7990226 23.18607027 -0.90112327 25.59293983 -1 28 C-1.33 28 -1.66 28 -2 28 C-2.25574877 24.27215931 -2.47490227 20.54303066 -2.6875 16.8125 C-2.76033203 15.75740234 -2.83316406 14.70230469 -2.90820312 13.61523438 C-2.96298828 12.59365234 -3.01777344 11.57207031 -3.07421875 10.51953125 C-3.13182373 9.58214111 -3.18942871 8.64475098 -3.2487793 7.67895508 C-2.94953176 4.4565378 -1.82675802 2.63261928 0 0 Z " fill="#6568A6" transform="translate(317,499)"/>
<path d="M0 0 C2.1480242 0.03799226 4.29490133 0.15526658 6.4375 0.3125 C8.19900391 0.43044922 8.19900391 0.43044922 9.99609375 0.55078125 C13 1 13 1 15 3 C10.05 3.33 5.1 3.66 0 4 C-0.33 3.01 -0.66 2.02 -1 1 C-0.67 0.67 -0.34 0.34 0 0 Z " fill="#5868C6" transform="translate(542,306)"/>
<path d="M0 0 C0.33 0 0.66 0 1 0 C1 9.9 1 19.8 1 30 C0.01 30.33 -0.98 30.66 -2 31 C-2.33 30.34 -2.66 29.68 -3 29 C-2.67 28.34 -2.34 27.68 -2 27 C-1.34 27 -0.68 27 0 27 C0 18.09 0 9.18 0 0 Z " fill="#4047A9" transform="translate(559,363)"/>
<path d="M0 0 C0.75410156 0.00451172 1.50820313 0.00902344 2.28515625 0.01367188 C4.14847127 0.02546501 6.01174555 0.04340058 7.875 0.0625 C4.27321412 2.46369059 1.36633631 2.50021322 -2.8125 2.6875 C-3.51439453 2.72617187 -4.21628906 2.76484375 -4.93945312 2.8046875 C-6.66754655 2.8987334 -8.39623675 2.9816968 -10.125 3.0625 C-10.125 2.4025 -10.125 1.7425 -10.125 1.0625 C-6.93675432 -0.53162284 -3.49603338 -0.03924735 0 0 Z " fill="#3235A0" transform="translate(387.125,623.9375)"/>
<path d="M0 0 C1.58323688 -0.027193 3.16661062 -0.04648306 4.75 -0.0625 C6.07257813 -0.07990234 6.07257813 -0.07990234 7.421875 -0.09765625 C9.7818838 -0.00826198 11.74498524 0.33087179 14 1 C13.67 1.99 13.34 2.98 13 4 C11.35 4 9.7 4 8 4 C8 3.34 8 2.68 8 2 C5.36 2 2.72 2 0 2 C0 1.34 0 0.68 0 0 Z " fill="#3233B4" transform="translate(488,624)"/>
<path d="M0 0 C0 3 0 3 -1.4609375 4.75390625 C-2.09257813 5.35074219 -2.72421875 5.94757812 -3.375 6.5625 C-4.00148438 7.16191406 -4.62796875 7.76132812 -5.2734375 8.37890625 C-5.84320312 8.91386719 -6.41296875 9.44882812 -7 10 C-7.66 10.66 -8.32 11.32 -9 12 C-9.99 11.34 -10.98 10.68 -12 10 C-8.04 6.7 -4.08 3.4 0 0 Z " fill="#626CBC" transform="translate(673,520)"/>
<path d="M0 0 C0.66 0 1.32 0 2 0 C2.02712153 1.916588 2.04645097 3.8332873 2.0625 5.75 C2.07410156 6.81734375 2.08570313 7.8846875 2.09765625 8.984375 C2.01510087 11.53368501 1.74617558 13.57933591 1 16 C0.34 16 -0.32 16 -1 16 C-0.67 10.72 -0.34 5.44 0 0 Z " fill="#283086" transform="translate(313,519)"/>
<path d="M0 0 C0.33 0 0.66 0 1 0 C1.45356243 6.46326465 0.59378942 9.60931587 -3 15 C-3.33 15 -3.66 15 -4 15 C-4.20607089 11.29072391 -3.76284816 9.2318883 -2 6 C-1.31039038 4.00779443 -0.63920943 2.00894394 0 0 Z " fill="#353D91" transform="translate(318,489)"/>
<path d="M0 0 C3.875 0.875 3.875 0.875 5 2 C5.07205511 3.68608966 5.08386068 5.37500659 5.0625 7.0625 C5.05347656 7.98160156 5.04445313 8.90070313 5.03515625 9.84765625 C5.02355469 10.55792969 5.01195312 11.26820313 5 12 C4.67 12 4.34 12 4 12 C4 10.02 4 8.04 4 6 C2.68 6 1.36 6 0 6 C0 4.02 0 2.04 0 0 Z " fill="#458EE0" transform="translate(624,297)"/>
<path d="M0 0 C0.66 0.66 1.32 1.32 2 2 C-1.96 5.96 -5.92 9.92 -10 14 C-10 9.84439769 -7.7179548 8.15900671 -5 5.3125 C-4.52304687 4.80138672 -4.04609375 4.29027344 -3.5546875 3.76367188 C-2.37640085 2.50290516 -1.18904747 1.25062314 0 0 Z " fill="#8296D2" transform="translate(374,387)"/>
<path d="M0 0 C0.66 0 1.32 0 2 0 C0.74568359 4.4946338 -0.78625645 7.59148411 -4 11 C-4.99 11.33 -5.98 11.66 -7 12 C-5.62567077 7.99153975 -3.7110562 5.23577676 -1 2 C-0.67 1.34 -0.34 0.68 0 0 Z " fill="#5474D6" transform="translate(626,309)"/>
<path d="M0 0 C0 1.65 0 3.3 0 5 C-3.73487777 4.5020163 -5.81237635 4.12508244 -9 2 C-6.98634914 -0.01365086 -2.76905449 0 0 0 Z " fill="#5D6CC9" transform="translate(385,578)"/>
<path d="M0 0 C0.99 0.33 1.98 0.66 3 1 C2.67 1.66 2.34 2.32 2 3 C2.66 3.33 3.32 3.66 4 4 C3.01 6.31 2.02 8.62 1 11 C-0.98362069 8.08291076 -0.9876191 6.87619096 -0.625 3.25 C-0.41875 2.1775 -0.2125 1.105 0 0 Z " fill="#283283" transform="translate(624,729)"/>
<path d="M0 0 C0.99 0.33 1.98 0.66 3 1 C3 1.99 3 2.98 3 4 C0.64561267 5.42944945 -0.48032433 6.08661261 -3.25 5.625 C-3.8275 5.41875 -4.405 5.2125 -5 5 C-4.67 4.01 -4.34 3.02 -4 2 C-3.01 2 -2.02 2 -1 2 C-0.67 1.34 -0.34 0.68 0 0 Z " fill="#602ECC" transform="translate(409,418)"/>
<path d="M0 0 C2.97 0 5.94 0 9 0 C9 0.99 9 1.98 9 3 C6.08517222 3.80967438 4.53886783 4.21845993 1.6875 3.0625 C1.130625 2.711875 0.57375 2.36125 0 2 C0 1.34 0 0.68 0 0 Z " fill="#3F52BE" transform="translate(481,320)"/>
<path d="M0 0 C1.32 0.33 2.64 0.66 4 1 C4 1.99 4 2.98 4 4 C1.03 5.65 -1.94 7.3 -5 9 C-5 8.34 -5 7.68 -5 7 C-4.175 6.360625 -3.35 5.72125 -2.5 5.0625 C-1.675 4.381875 -0.85 3.70125 0 3 C0 2.01 0 1.02 0 0 Z " fill="#303588" transform="translate(591,519)"/>
<path d="M0 0 C0.66 0.33 1.32 0.66 2 1 C0.87895467 2.31587941 -0.24696965 3.62760353 -1.375 4.9375 C-2.00148438 5.66839844 -2.62796875 6.39929688 -3.2734375 7.15234375 C-5 9 -5 9 -7 10 C-5.6062718 5.56541027 -3.39417765 3.12621626 0 0 Z " fill="#3C4994" transform="translate(451,724)"/>
<path d="M0 0 C1.5625 1.1875 1.5625 1.1875 3 3 C2.6875 5.6875 2.6875 5.6875 2 8 C0.68 7.01 -0.64 6.02 -2 5 C-1.125 1.125 -1.125 1.125 0 0 Z " fill="#353B9B" transform="translate(309,580)"/>
<path d="M0 0 C-1.98 0.33 -3.96 0.66 -6 1 C-6 2.32 -6 3.64 -6 5 C-6.99 5 -7.98 5 -9 5 C-10.6875 3 -10.6875 3 -12 1 C-3.96428571 -1.27678571 -3.96428571 -1.27678571 0 0 Z " fill="#7C53D4" transform="translate(421,416)"/>
<path d="M0 0 C-3.66830909 2.44553939 -6.63377915 2.95607424 -11 3 C-13.5 2.0625 -13.5 2.0625 -15 1 C-9.94997778 -0.03590199 -5.12583611 -0.10251672 0 0 Z " fill="#A18CDB" transform="translate(442,412)"/>
<path d="M0 0 C0.99 0.33 1.98 0.66 3 1 C2.43454163 4.95820859 1.19097652 7.6659053 -1 11 C-2.41687119 6.74938644 -1.19320039 4.28148375 0 0 Z " fill="#7079C0" transform="translate(689,410)"/>
<path d="M0 0 C0.33 0 0.66 0 1 0 C1.05399736 1.45792884 1.09279177 2.91642712 1.125 4.375 C1.14820313 5.18710937 1.17140625 5.99921875 1.1953125 6.8359375 C1 9 1 9 -1 11 C-2 10 -2 10 -2.1875 7.1875 C-2.00782439 4.13301456 -1.57664404 2.56204656 0 0 Z " fill="#262F85" transform="translate(295,521)"/>
<path d="M0 0 C0.33 0.99 0.66 1.98 1 3 C-1.31 5.31 -3.62 7.62 -6 10 C-6.66 9.67 -7.32 9.34 -8 9 C-5.36 6.03 -2.72 3.06 0 0 Z " fill="#475194" transform="translate(320,470)"/>
<path d="M0 0 C1.32 0 2.64 0 4 0 C4 1.98 4 3.96 4 6 C3.01 6.33 2.02 6.66 1 7 C0.67 4.69 0.34 2.38 0 0 Z " fill="#3E6ED5" transform="translate(588,308)"/>
<path d="M0 0 C0.33 0 0.66 0 1 0 C1 1.65 1 3.3 1 5 C2.65 5 4.3 5 6 5 C5.67 5.66 5.34 6.32 5 7 C3.02 7 1.04 7 -1 7 C-1.04254356 5.00045254 -1.04080783 2.99958364 -1 1 C-0.67 0.67 -0.34 0.34 0 0 Z " fill="#263386" transform="translate(447,731)"/>
<path d="M0 0 C-0.33 1.32 -0.66 2.64 -1 4 C-5.455 3.01 -5.455 3.01 -10 2 C-10 1.67 -10 1.34 -10 1 C-6.59437148 0.22157062 -3.49234244 -0.09978121 0 0 Z " fill="#4D4DC3" transform="translate(512,603)"/>
<path d="M0 0 C0.33 0 0.66 0 1 0 C1 2.64 1 5.28 1 8 C-0.98 8.99 -0.98 8.99 -3 10 C-2.01 6.7 -1.02 3.4 0 0 Z " fill="#8556D8" transform="translate(332,482)"/>
<path d="M0 0 C0.99 0.33 1.98 0.66 3 1 C1.02 3.31 -0.96 5.62 -3 8 C-3.66 7.01 -4.32 6.02 -5 5 C-3.35 3.35 -1.7 1.7 0 0 Z " fill="#6F42D1" transform="translate(368,448)"/>
<path d="M0 0 C2.64 0 5.28 0 8 0 C8 0.66 8 1.32 8 2 C6.02 2.66 4.04 3.32 2 4 C1.34 2.68 0.68 1.36 0 0 Z " fill="#3D4EBD" transform="translate(374,576)"/>
<path d="M0 0 C2.2477975 2.05233685 3.0022242 3.00667261 4 6 C1.69 5.34 -0.62 4.68 -3 4 C-3 3.34 -3 2.68 -3 2 C-2.01 2 -1.02 2 0 2 C0 1.34 0 0.68 0 0 Z " fill="#5848BA" transform="translate(372,574)"/>
<path d="M0 0 C0.66 0.66 1.32 1.32 2 2 C1.8125 4.5 1.8125 4.5 1 7 C0.01 7.66 -0.98 8.32 -2 9 C-1.125 2.25 -1.125 2.25 0 0 Z " fill="#43A3E5" transform="translate(589,292)"/>
<path d="M0 0 C2.97 0.495 2.97 0.495 6 1 C2.71536341 3.18975773 -0.20696275 3.99806563 -4 5 C-2.68 3.35 -1.36 1.7 0 0 Z " fill="#4F4DC3" transform="translate(523,618)"/>
<path d="M0 0 C0.33 0 0.66 0 1 0 C1.36630156 3.93774177 1.30233203 5.56539771 -1 8.875 C-1.66 9.57625 -2.32 10.2775 -3 11 C-3.125 8.625 -3.125 8.625 -3 6 C-2.34 5.34 -1.68 4.68 -1 4 C-0.3574765 1.93125966 -0.3574765 1.93125966 0 0 Z " fill="#A968BA" transform="translate(416,567)"/>
<path d="M0 0 C0.66 0 1.32 0 2 0 C3.39195915 4.17587745 1.82323219 6.13474776 0 10 C-0.33 10 -0.66 10 -1 10 C-0.67 6.7 -0.34 3.4 0 0 Z " fill="#3A448F" transform="translate(294,515)"/>
<path d="M0 0 C-1 1 -1 1 -4.375 1.1875 C-8 1 -8 1 -11 -1 C-3.375 -2.25 -3.375 -2.25 0 0 Z " fill="#3F50C0" transform="translate(556,295)"/>
<path d="M0 0 C5.445 1.485 5.445 1.485 11 3 C9.02 3.99 9.02 3.99 7 5 C4.35435928 4.06434658 2.37036624 2.54985485 0 1 C0 0.67 0 0.34 0 0 Z " fill="#6696DA" transform="translate(663,289)"/>
<path d="M0 0 C1.32 0.66 2.64 1.32 4 2 C1.69 3.32 -0.62 4.64 -3 6 C-3 5.01 -3 4.02 -3 3 C-2.34 3 -1.68 3 -1 3 C-0.67 2.01 -0.34 1.02 0 0 Z " fill="#4749C4" transform="translate(608,576)"/>
<path d="M0 0 C2.625 -0.1875 2.625 -0.1875 5 0 C5 0.99 5 1.98 5 3 C2.69 3 0.38 3 -2 3 C-1.34 2.01 -0.68 1.02 0 0 Z " fill="#3A6AD3" transform="translate(522,573)"/>
<path d="M0 0 C2.31 0.33 4.62 0.66 7 1 C7 1.66 7 2.32 7 3 C4.69 3.33 2.38 3.66 0 4 C0 2.68 0 1.36 0 0 Z " fill="#2B3283" transform="translate(503,559)"/>
<path d="M0 0 C0.99 0 1.98 0 3 0 C2.67 1.65 2.34 3.3 2 5 C0.68 5 -0.64 5 -2 5 C-1.125 1.125 -1.125 1.125 0 0 Z " fill="#353D87" transform="translate(309,484)"/>
<path d="M0 0 C1.32 0 2.64 0 4 0 C3.67 1.98 3.34 3.96 3 6 C2.01 5.67 1.02 5.34 0 5 C0 3.35 0 1.7 0 0 Z " fill="#4B45B2" transform="translate(526,408)"/>
<path d="M0 0 C0.68707555 2.49064888 1 4.37886292 1 7 C0.01 7.495 0.01 7.495 -1 8 C-1.66 6.35 -2.32 4.7 -3 3 C-2.01 2.01 -1.02 1.02 0 0 Z " fill="#6071C5" transform="translate(396,365)"/>
<path d="M0 0 C2.31 0 4.62 0 7 0 C7 0.66 7 1.32 7 2 C4.69 2.33 2.38 2.66 0 3 C0 2.01 0 1.02 0 0 Z " fill="#2C3095" transform="translate(338,608)"/>
<path d="M0 0 C-0.66 1.32 -1.32 2.64 -2 4 C-3.32 4 -4.64 4 -6 4 C-5.67 3.01 -5.34 2.02 -5 1 C-2 0 -2 0 0 0 Z " fill="#4146B6" transform="translate(658,537)"/>
</svg>
